<svg width="100" height="100" viewBox="0 0 100 100" xmlns="http://www.w3.org/2000/svg">
  <path d="M25 15 L75 15 L90 35 L90 65 L75 85 L25 85 L10 65 L10 35 Z" fill="#4a4a4a"/>
  <path d="M20 25 L20 75 L30 75 L30 25 Z" fill="white"/>
  <path d="M35 25 L35 75 L40 75 L40 25 Z" fill="white"/>
  <path d="M45 25 L80 45 L75 50 L45 35 Z" fill="white"/>
  <path d="M45 35 L75 50 L70 55 L45 45 Z" fill="white"/>
  <path d="M45 45 L70 55 L65 60 L45 55 Z" fill="white"/>
  <path d="M45 55 L65 60 L60 65 L45 65 Z" fill="white"/>
</svg>
